<svg width="173" height="37" viewBox="0 0 173 37" fill="#E9ECF8" xmlns="http://www.w3.org/2000/svg">
<g clip-path="url(#clip0_741_90)">
<path d="M23.2406 32.0428L7.84546 16.6477L10.8781 13.6208L29.3001 32.0428H23.2406Z" fill="#8F99C5"/>
<path d="M20.4572 20.8168L36.5597 4.71421V0L18.0972 18.4626L20.4572 20.8168Z" fill="#8F99C5"/>
<path d="M12.6893 23.8744L7.03516 29.5286L9.39276 31.8862L15.0469 26.232L12.6893 23.8744Z" fill="#8F99C5"/>
<path d="M11.4173 25.4091C10.8196 25.8151 10.1595 26.1206 9.46322 26.3137C8.7606 26.5194 8.03246 26.6248 7.30036 26.6268C5.67291 26.6268 4.44168 26.161 3.60669 25.2294C2.7717 24.2977 2.35421 22.9563 2.35421 21.2052V13.3365H0V10.3561H2.35421V6.87697L6.58714 6.3667V10.3329H10.2228L9.80533 13.3365H6.58714V21.1182C6.53351 21.6889 6.66352 22.2618 6.95825 22.7534C7.10027 22.9283 7.28265 23.0661 7.48971 23.155C7.69676 23.2439 7.92231 23.2812 8.14695 23.2637C8.77991 23.2366 9.39597 23.0512 9.9387 22.7244L11.4173 25.4091Z" fill="#8F99C5"/>
<path d="M39.1749 33.7822C38.5758 34.1858 37.9162 34.4912 37.2208 34.6868C36.5182 34.8925 35.79 34.9979 35.0579 34.9999C33.4285 34.9999 32.1993 34.5128 31.3643 33.6025C30.5293 32.6921 30.1118 31.3468 30.1118 29.5725V21.7097H24.2205V18.7292H30.1118V15.2501L34.3447 14.7456V18.7292H37.9804L37.5629 21.7097H34.3447V29.4855C34.2958 30.0599 34.432 30.6349 34.7332 31.1265C34.8768 31.3011 35.0603 31.4387 35.2682 31.5275C35.4761 31.6163 35.7023 31.6538 35.9277 31.6368C36.5508 31.605 37.1563 31.4197 37.6905 31.0975L39.1749 33.7822Z" fill="#8F99C5"/>
<path d="M44.4864 13.1279H32.7444V10.0952H45.8085L44.4864 13.1279Z" fill="#8F99C5"/>
</g>
<path d="M60.12 30.4C59.672 30.72 59.168 30.96 58.608 31.12C58.064 31.28 57.504 31.36 56.928 31.36C55.68 31.344 54.728 30.992 54.072 30.304C53.432 29.6 53.112 28.568 53.112 27.208V20.512H51.12V18.304H53.112V15.496L56.184 15.136V18.304H59.136L58.824 20.512H56.184V27.136C56.184 27.76 56.288 28.208 56.496 28.48C56.72 28.752 57.064 28.888 57.528 28.888C57.992 28.888 58.496 28.736 59.04 28.432L60.12 30.4ZM67.824 24.208L72.072 31H68.52L65.904 25.96L63.312 31H59.928L64.152 24.304L60.36 18.304H63.864L66.024 22.624L68.16 18.304H71.496L67.824 24.208ZM81.12 30.4C80.672 30.72 80.168 30.96 79.608 31.12C79.064 31.28 78.504 31.36 77.928 31.36C76.68 31.344 75.728 30.992 75.072 30.304C74.432 29.6 74.112 28.568 74.112 27.208V20.512H72.12V18.304H74.112V15.496L77.184 15.136V18.304H80.136L79.824 20.512H77.184V27.136C77.184 27.76 77.288 28.208 77.496 28.48C77.72 28.752 78.064 28.888 78.528 28.888C78.992 28.888 79.496 28.736 80.04 28.432L81.12 30.4ZM92.568 14.416L92.232 16.768H86.112V21.4H91.44V23.752H86.112V28.624H92.664V31H82.944V14.416H92.568ZM100.218 17.944C101.05 17.944 101.794 18.064 102.45 18.304C103.122 18.544 103.754 18.92 104.346 19.432L102.978 21.28C102.546 20.96 102.13 20.728 101.73 20.584C101.33 20.44 100.89 20.368 100.41 20.368C98.5058 20.368 97.5538 21.816 97.5538 24.712C97.5538 26.184 97.8018 27.248 98.2978 27.904C98.7938 28.544 99.4978 28.864 100.41 28.864C100.858 28.864 101.266 28.792 101.634 28.648C102.018 28.504 102.466 28.272 102.978 27.952L104.346 29.896C103.146 30.872 101.778 31.36 100.242 31.36C99.0258 31.36 97.9698 31.096 97.0738 30.568C96.1778 30.024 95.4898 29.256 95.0098 28.264C94.5298 27.272 94.2898 26.104 94.2898 24.76C94.2898 23.416 94.5298 22.232 95.0098 21.208C95.4898 20.168 96.1778 19.368 97.0738 18.808C97.9698 18.232 99.0178 17.944 100.218 17.944ZM112.831 17.968C113.295 17.968 113.719 18.024 114.103 18.136L113.575 21.112C113.191 21.016 112.815 20.968 112.447 20.968C111.695 20.968 111.103 21.24 110.671 21.784C110.239 22.312 109.895 23.128 109.639 24.232V31H106.567V18.304H109.231L109.519 20.8C109.823 19.888 110.263 19.192 110.839 18.712C111.415 18.216 112.079 17.968 112.831 17.968ZM122.156 31.048C121.644 32.616 120.868 33.832 119.828 34.696C118.788 35.576 117.364 36.088 115.556 36.232L115.244 34C116.076 33.872 116.74 33.688 117.236 33.448C117.748 33.224 118.156 32.92 118.46 32.536C118.764 32.152 119.044 31.64 119.3 31H118.244L114.212 18.304H117.476L120.236 28.96L123.116 18.304H126.284L122.156 31.048ZM134.729 17.944C136.329 17.944 137.513 18.528 138.281 19.696C139.049 20.864 139.433 22.504 139.433 24.616C139.433 25.928 139.233 27.096 138.833 28.12C138.449 29.128 137.873 29.92 137.105 30.496C136.353 31.072 135.457 31.36 134.417 31.36C133.073 31.36 132.009 30.896 131.225 29.968V35.896L128.153 36.232V18.304H130.841L131.009 19.864C131.505 19.224 132.073 18.744 132.713 18.424C133.353 18.104 134.025 17.944 134.729 17.944ZM133.553 29.008C135.329 29.008 136.217 27.552 136.217 24.64C136.217 23.088 136.017 21.968 135.617 21.28C135.217 20.592 134.617 20.248 133.817 20.248C133.305 20.248 132.825 20.408 132.377 20.728C131.929 21.032 131.545 21.448 131.225 21.976V27.688C131.817 28.568 132.593 29.008 133.553 29.008ZM149.722 30.4C149.274 30.72 148.77 30.96 148.21 31.12C147.666 31.28 147.106 31.36 146.53 31.36C145.282 31.344 144.33 30.992 143.674 30.304C143.034 29.6 142.714 28.568 142.714 27.208V20.512H140.722V18.304H142.714V15.496L145.786 15.136V18.304H148.738L148.426 20.512H145.786V27.136C145.786 27.76 145.89 28.208 146.098 28.48C146.322 28.752 146.666 28.888 147.13 28.888C147.594 28.888 148.098 28.736 148.642 28.432L149.722 30.4ZM156.235 17.944C158.107 17.944 159.563 18.544 160.603 19.744C161.659 20.928 162.187 22.56 162.187 24.64C162.187 25.968 161.947 27.144 161.467 28.168C160.987 29.176 160.299 29.96 159.403 30.52C158.507 31.08 157.443 31.36 156.211 31.36C154.339 31.36 152.875 30.768 151.819 29.584C150.763 28.384 150.235 26.736 150.235 24.64C150.235 23.312 150.475 22.144 150.955 21.136C151.435 20.128 152.123 19.344 153.019 18.784C153.931 18.224 155.003 17.944 156.235 17.944ZM156.235 20.272C154.395 20.272 153.475 21.728 153.475 24.64C153.475 26.144 153.699 27.256 154.147 27.976C154.611 28.68 155.299 29.032 156.211 29.032C157.123 29.032 157.803 28.672 158.251 27.952C158.715 27.232 158.947 26.128 158.947 24.64C158.947 23.152 158.715 22.056 158.251 21.352C157.803 20.632 157.131 20.272 156.235 20.272ZM171.331 17.968C171.795 17.968 172.219 18.024 172.603 18.136L172.075 21.112C171.691 21.016 171.315 20.968 170.947 20.968C170.195 20.968 169.603 21.24 169.171 21.784C168.739 22.312 168.395 23.128 168.139 24.232V31H165.067V18.304H167.731L168.019 20.8C168.323 19.888 168.763 19.192 169.339 18.712C169.915 18.216 170.579 17.968 171.331 17.968Z" fill="#8F99C5"/>
<defs>
<clipPath id="clip0_741_90">
<rect width="45.8085" height="35" fill="white"/>
</clipPath>
</defs>
</svg>
